HIERARCHY
ROOT pelvis
{
	OFFSET 0.000000 0.000000 0.000000
	CHANNELS 6 Xposition Yposition Zposition Zrotation Xrotation Yrotation
	JOINT lfemur
	{
		OFFSET 11.446000 0.000000 0.000000
		CHANNELS 3 Zrotation Xrotation Yrotation
		JOINT ltibia
		{
			OFFSET 0.000000 -42.030400 0.000000
			CHANNELS 3 Zrotation Xrotation Yrotation
			JOINT lfoot
			{
				OFFSET 0.000000 -39.930200 0.000000
				CHANNELS 3 Zrotation Xrotation Yrotation
				JOINT ltoes
				{
					OFFSET 0.000000 0.000000 11.775800
					CHANNELS 3 Zrotation Xrotation Yrotation
					End Site
					{
					    OFFSET 0.000000 0.000000 5.000000
					}
				}
			}
		}
	}
	JOINT rfemur
	{
		OFFSET -11.446000 0.000000 0.000000
		CHANNELS 3 Zrotation Xrotation Yrotation
		JOINT rtibia
		{
			OFFSET 0.000000 -42.030400 0.000000
			CHANNELS 3 Zrotation Xrotation Yrotation
			JOINT rfoot
			{
				OFFSET 0.000000 -39.930200 0.000000
				CHANNELS 3 Zrotation Xrotation Yrotation
				JOINT rtoes
				{
					OFFSET 0.000000 0.000000 11.775800
					CHANNELS 3 Zrotation Xrotation Yrotation
					End Site
					{
					    OFFSET 0.000000 0.000000 5.000000
					}
				}
			}
		}
	}
	JOINT thorax
	{
		OFFSET 0.000000 11.255600 -5.000000
		CHANNELS 3 Zrotation Xrotation Yrotation
		JOINT head
		{
			OFFSET 0.000000 43.799300 0.000000
			CHANNELS 3 Zrotation Xrotation Yrotation
			End Site
			{
			    OFFSET 0.000000 5.000000 0.000000
			}
		}
		JOINT lclavicle
		{
			OFFSET 0.000000 39.863000 0.000000
			CHANNELS 3 Zrotation Xrotation Yrotation
			JOINT lhumerus
			{
				OFFSET 17.380600 4.958300 0.000000
				CHANNELS 3 Zrotation Xrotation Yrotation
				JOINT lradius
				{
					OFFSET 0.000000 -27.561300 0.000000
					CHANNELS 3 Zrotation Xrotation Yrotation
					JOINT lhand
					{
						OFFSET 0.000000 -26.933000 0.000000
						CHANNELS 3 Zrotation Xrotation Yrotation
						End Site
						{
						    OFFSET 0.000000 -5.000000 0.000000
						}
					}
				}
			}
		}
		JOINT rclavicle
		{
			OFFSET 0.000000 39.863000 0.000000
			CHANNELS 3 Zrotation Xrotation Yrotation
			JOINT rhumerus
			{
				OFFSET -17.380600 4.958300 0.000000
				CHANNELS 3 Zrotation Xrotation Yrotation
				JOINT rradius
				{
					OFFSET 0.000000 -27.561300 0.000000
					CHANNELS 3 Zrotation Xrotation Yrotation
					JOINT rhand
					{
						OFFSET 0.000000 -26.933000 0.000000
						CHANNELS 3 Zrotation Xrotation Yrotation
						End Site
						{
						    OFFSET 0.000000 -5.000000 0.000000
						}
					}
				}
			}
		}
	}
}
MOTION
Frames:	6
Frame Time:	0.0333333
1.564000 86.862200 -25.312300 16.449622 14.024987 -22.869234 -6.666131 -41.310471 -16.674421 -0.000000 28.880023 -0.000000 0.000000 24.172620 -3.051468 -0.000000 -1.762638 -0.000000 -23.114618 -36.714613 -18.013440 -0.000000 25.559309 -0.000000 -0.000000 9.480655 -1.530019 -0.000000 -29.580773 -0.000000 4.959268 27.072017 5.920098 20.110191 17.335044 -14.583979 -12.925007 -0.000000 8.982829 41.911599 17.982533 -10.157766 0.000003 -60.946390 -23.784209 -1.125381 -11.378397 0.000000 16.057643 -0.000000 19.616454 -60.849814 -3.181417 -25.539420 0.000000 -48.319052 -7.471361 -8.819590 -0.428378 -0.000000 
1.471500 86.662400 -24.907300 15.129926 12.633153 -22.947513 -5.385185 -40.285011 -16.008018 -0.000000 30.699770 0.000000 -0.000000 22.929919 -4.561141 -0.000000 -1.773376 0.000000 -21.674052 -34.925841 -16.503699 0.000000 25.598620 0.000000 0.000000 8.623986 -1.622930 -0.000000 -29.577966 -0.000000 3.712258 26.468053 4.636560 19.303526 18.060981 -13.981825 -13.523229 0.000000 7.960682 40.635806 14.819040 -10.238319 -0.000003 -63.854804 -24.712225 -1.030742 -11.417330 -0.000000 15.151085 -0.000000 16.888335 -62.447804 -0.953406 -21.591234 -0.000001 -56.017329 -7.173847 -8.719296 -0.465881 -0.000000 
1.599700 86.498700 -24.424000 13.867800 11.442598 -23.519448 -3.889184 -39.052605 -15.853488 -0.000000 31.954108 -0.000000 0.000000 20.937873 -5.747625 0.000000 -1.802588 0.000000 -20.372794 -33.447890 -15.214246 -0.000000 25.496342 -0.000000 -0.000000 8.594000 -1.326542 -0.000000 -29.577655 0.000000 2.381335 25.633159 3.274385 18.234111 18.726532 -12.855384 -14.209108 -0.000000 7.392678 39.248848 12.024702 -10.891018 -0.000002 -67.201792 -26.372816 1.074470 -11.231664 -0.000000 14.126142 0.000000 14.600493 -62.778452 1.225656 -19.202825 0.000000 -63.335883 -7.958593 -7.590022 -0.848292 0.000000 
1.878600 86.365100 -23.727900 13.048390 9.848586 -24.724955 -2.639304 -36.643716 -16.529888 0.000000 32.116454 -0.000000 -0.000000 18.574335 -6.994334 0.000000 -1.796244 -0.000000 -19.767186 -32.152030 -14.066120 0.000000 25.821373 -0.000000 -0.000000 8.632089 -0.367707 -0.000000 -29.578215 0.000000 0.320487 24.980276 2.348197 17.045051 19.487324 -11.516395 -14.439332 0.000000 6.658653 37.467315 10.210943 -11.987726 0.000001 -71.342662 -27.482115 2.393788 -11.195395 0.000000 12.896759 0.000000 11.656457 -61.797236 2.556940 -16.613676 -0.000000 -70.210896 -7.863099 -6.457100 -1.231281 0.000000 
2.358600 86.113900 -22.979200 11.992933 8.835106 -26.052687 -1.024754 -34.464948 -17.404434 0.000000 32.619290 0.000000 -0.000000 14.964370 -5.802957 0.000000 -1.790344 -0.000000 -18.920803 -31.161032 -12.974971 -0.000000 25.871203 0.000000 -0.000000 8.666808 0.476734 -0.000000 -29.580166 -0.000000 -1.187458 23.821730 1.098855 15.546338 20.553751 -9.394005 -14.756807 0.000000 6.020710 35.770596 9.087111 -13.069175 0.000005 -75.906139 -28.531345 2.184540 -11.548710 -0.000000 12.330444 -0.000000 9.010647 -60.622177 4.135158 -13.271519 -0.000001 -77.100953 -5.784209 -6.192527 -1.326174 -0.000000 
2.993100 85.832200 -22.000500 10.816312 7.601231 -28.128190 1.034252 -31.533531 -17.104528 -0.000000 33.532807 0.000000 0.000000 11.570982 -1.813248 -0.000000 -1.718965 -0.000000 -17.977670 -30.138653 -11.351619 -0.000000 25.923432 -0.000000 0.000000 8.887735 1.705828 -0.000000 -29.583403 -0.000000 -2.653307 22.975066 0.183323 13.586455 21.470080 -6.941057 -15.404793 0.000000 5.981882 34.860252 7.804999 -15.264998 0.000002 -80.289306 -28.597616 2.169165 -11.484836 0.000000 12.397602 0.000000 6.925061 -59.379819 6.144503 -9.984890 0.000005 -83.463617 -5.116317 -5.660288 -1.509770 0.000000 
